<svg xmlns="http://www.w3.org/2000/svg"
  xmlns:xlink="http://www.w3.org/1999/xlink" version="1.1" width="1000" height="1000" viewBox="0 0 1000 1000" xml:space="preserve">
  <desc>Created with Fabric.js 3.5.0</desc>
  <defs>
    <linearGradient id="Gradient1" x1="1" x2="0.5" y1="0.5" y2="1">
      <stop class="stop1" offset="0%" stop-color="#f29200"/>
      <stop class="stop2" offset="100%" stop-color="#ffd900"/>
    </linearGradient>
    <linearGradient id="Gradient2" x1="0.5" x2="1" y1="0" y2="0.5">
      <stop offset="0%" stop-color="#2c1a5c"/>
      <stop offset="40%" stop-color="#33117c"/>
      <stop offset="100%" stop-color="#50008e"/>
    </linearGradient>
  </defs>
  <rect x="0" y="0" width="100%" height="100%" fill="url(#Gradient1)" />
  <g transform="matrix(11.2558 0 0 11.9567 459.504 622.8164)" id="673201">
    <path fill="url(#Gradient2)" vector-effect="non-scaling-stroke" transform=" translate(-43.5, -25)" d="M 2.5 2.5 H 84.5 V 47.5 H 2.5 V 2.5 Z" stroke-linecap="round"/>
  </g>
  <g transform="matrix(1 0 0 1 509.0253 696.003)" style="" id="648705">

    <path xml:space="preserve" font-family="Pacifico" font-size="244" font-style="normal" font-weight="normal" fill="#f2c010" d="M-416.73-53.16Q-426.97-53.16-432.10-57.92Q-437.22-62.67-437.22-71.21L-437.22-71.21Q-437.22-79.75-430.51-85.49Q-423.80-91.22-413.80-91.22L-413.80-91.22Q-404.77-91.22-399.16-86.83Q-393.55-82.44-393.55-74.39L-393.55-74.39Q-393.55-64.63-399.89-58.89Q-406.23-53.16-416.73-53.16L-416.73-53.16ZM-372.81 22.73Q-369.63 22.73-367.80 25.78Q-365.97 28.83-365.97 33.46L-365.97 33.46Q-365.97 39.07-367.68 42.25Q-369.39 45.42-373.05 47.86L-373.05 47.86Q-390.13 59.08-418.68 78.85L-418.68 78.85Q-428.19 129.60-443.32 158.63Q-458.45 187.67-481.87 187.67L-481.87 187.67Q-494.56 187.67-502.25 179.98Q-509.93 172.30-509.93 159.85L-509.93 159.85Q-509.93 142.53-496.51 122.89Q-483.09 103.25-446.01 74.45L-446.01 74.45L-444.30 62.01Q-440.88 38.59-438.93 15.89L-438.93 15.89Q-437.47 2.72-434.29-23.39L-434.29-23.39Q-433.32-30.47-428.93-33.76Q-424.53-37.05-415.51-37.05L-415.51-37.05Q-408.19-37.05-405.87-34.86Q-403.55-32.66-403.55-28.76L-403.55-28.76Q-403.55-17.53-411.60 33.22L-411.60 33.22L-414.04 50.05Q-394.52 35.41-378.42 24.68L-378.42 24.68Q-375.25 22.73-372.81 22.73L-372.81 22.73ZM-479.19 164.00Q-472.85 164.00-465.28 149.61Q-457.72 135.21-451.13 103.25L-451.13 103.25Q-469.67 119.11-477.85 131.92Q-486.02 144.73-486.02 154.49L-486.02 154.49Q-486.02 164.00-479.19 164.00L-479.19 164.00ZM-256.42 1.74Q-253.25 1.74-251.54 4.91Q-249.83 8.09-249.83 12.97L-249.83 12.97Q-249.83 24.68-256.91 26.87L-256.91 26.87Q-271.55 32.00-289.11 32.73L-289.11 32.73Q-293.75 53.23-307.41 65.55Q-321.08 77.87-338.40 77.87L-338.40 77.87Q-353.04 77.87-363.41 70.79Q-373.78 63.72-379.15 52.01Q-384.52 40.29-384.52 26.63L-384.52 26.63Q-384.52 8.09-377.44-6.43Q-370.37-20.95-357.92-29.12Q-345.48-37.30-330.35-37.30L-330.35-37.30Q-311.81-37.30-300.46-24.49Q-289.11-11.68-287.16 7.11L-287.16 7.11Q-275.69 6.38-259.83 2.23L-259.83 2.23Q-257.88 1.74-256.42 1.74L-256.42 1.74ZM-336.45 52.01Q-328.64 52.01-322.91 45.66Q-317.17 39.32-315.22 27.36L-315.22 27.36Q-322.79 22.24-326.81 13.94Q-330.84 5.65-330.84-3.63L-330.84-3.63Q-330.84-7.53-330.11-11.43L-330.11-11.43L-331.33-11.43Q-341.09-11.43-347.55-2.04Q-354.02 7.35-354.02 24.43L-354.02 24.43Q-354.02 37.85-348.77 44.93Q-343.53 52.01-336.45 52.01L-336.45 52.01ZM-129.78 22.24Q-126.61 22.24-124.78 25.17Q-122.95 28.09-122.95 33.22L-122.95 33.22Q-122.95 42.98-127.59 48.35L-127.59 48.35Q-138.57 61.77-149.79 69.82Q-161.01 77.87-176.39 77.87L-176.39 77.87Q-195.17 77.87-206.64 67.13Q-218.11 56.40-218.11 38.59L-218.11 38.59Q-218.11 29.07-208.35 24.92L-208.35 24.92Q-197.61 20.29-192.98 15.04Q-188.34 9.79-188.34 2.23L-188.34 2.23Q-188.34-2.16-190.17-4.36Q-192.00-6.55-194.69-6.55L-194.69-6.55Q-201.27-6.55-209.20 2.96Q-217.13 12.48-223.97 27.48Q-230.80 42.49-234.70 58.35L-234.70 58.35Q-237.39 69.82-240.92 73.84Q-244.46 77.87-252.03 77.87L-252.03 77.87Q-259.59 77.87-263.13 72.38Q-266.67 66.89-267.89 55.42Q-269.11 43.95-269.11 21.75L-269.11 21.75Q-269.11-15.83-261.42-56.57Q-253.73-97.32-238.73-125.02Q-223.72-152.71-202.74-152.71L-202.74-152.71Q-191.51-152.71-184.56-143.07Q-177.61-133.43-177.61-118.06L-177.61-118.06Q-177.61-93.42-192.00-66.94Q-206.40-40.47-238.85-5.09L-238.85-5.09Q-239.58 7.60-239.58 21.02L-239.58 21.02Q-227.87-9.48-212.74-23.27Q-197.61-37.05-184.44-37.05L-184.44-37.05Q-172.24-37.05-164.80-28.76Q-157.35-20.46-157.35-8.26L-157.35-8.26Q-157.35 5.16-164.19 16.38Q-171.02 27.61-187.61 36.39L-187.61 36.39Q-186.63 42.98-181.63 47.00Q-176.63 51.03-169.55 51.03L-169.55 51.03Q-161.99 51.03-154.91 45.17Q-147.84 39.32-136.37 25.65L-136.37 25.65Q-133.44 22.24-129.78 22.24L-129.78 22.24ZM-207.86-128.55Q-212.25-128.55-217.62-115.99Q-222.99-103.42-227.99-82.07Q-232.99-60.72-236.17-35.59L-236.17-35.59Q-221.04-53.40-211.16-74.39Q-201.27-95.37-201.27-112.45L-201.27-112.45Q-201.27-120.26-202.98-124.41Q-204.69-128.55-207.86-128.55L-207.86-128.55ZM-112.70 77.87Q-127.83 77.87-136.86 66.89Q-145.89 55.91-145.89 38.10L-145.89 38.10Q-145.89 18.58-136.86 1.13Q-127.83-16.31-112.82-26.93Q-97.82-37.54-80.98-37.54L-80.98-37.54Q-75.61-37.54-73.78-35.47Q-71.95-33.39-70.73-28.03L-70.73-28.03Q-65.61-29.00-60.00-29.00L-60.00-29.00Q-48.04-29.00-48.04-20.46L-48.04-20.46Q-48.04-15.34-51.70 3.94L-51.70 3.94Q-57.31 32.00-57.31 42.98L-57.31 42.98Q-57.31 46.64-55.48 48.83Q-53.65 51.03-50.73 51.03L-50.73 51.03Q-46.09 51.03-39.50 45.05Q-32.91 39.07-21.69 25.65L-21.69 25.65Q-18.76 22.24-15.10 22.24L-15.10 22.24Q-11.93 22.24-10.10 25.17Q-8.27 28.09-8.27 33.22L-8.27 33.22Q-8.27 42.98-12.91 48.35L-12.91 48.35Q-22.91 60.79-34.13 69.33Q-45.36 77.87-55.85 77.87L-55.85 77.87Q-63.90 77.87-70.61 72.38Q-77.32 66.89-80.74 57.37L-80.74 57.37Q-93.43 77.87-112.70 77.87L-112.70 77.87ZM-103.92 53.23Q-98.55 53.23-93.67 46.88Q-88.79 40.54-86.59 30.05L-86.59 30.05L-77.57-14.85Q-87.81-14.61-96.48-7.16Q-105.14 0.28-110.26 12.48Q-115.39 24.68-115.39 38.34L-115.39 38.34Q-115.39 45.91-112.34 49.57Q-109.29 53.23-103.92 53.23L-103.92 53.23Z"/>
  </g>
</svg>